<?xml version="1.0" standalone="no"?><!DOCTYPE svg PUBLIC "-//W3C//DTD SVG 1.1//EN" "http://www.w3.org/Graphics/SVG/1.1/DTD/svg11.dtd"><svg t="1608521566080" class="icon" viewBox="0 0 1024 1024" version="1.1" xmlns="http://www.w3.org/2000/svg" p-id="1767" xmlns:xlink="http://www.w3.org/1999/xlink" width="200" height="200"><defs><style type="text/css"></style></defs><path d="M512.013262 1023.985665a94.971346 94.971346 0 0 1-51.248689-13.925718c-66.403146-40.957993-241.754554-150.725414-315.376546-297.047845A1372.195162 1372.195162 0 0 1 51.543025 287.970529a99.527923 99.527923 0 0 1 67.119911-102.44618c44.029843-14.642483 133.523057-45.360977 176.11937-65.839974a744.001944 744.001944 0 0 0 137.823647-87.035735l14.437692-11.00746a110.637779 110.637779 0 0 1 131.372763 0l12.952965 9.522733a743.950746 743.950746 0 0 0 137.15808 91.438719c42.545115 20.478997 131.321565 50.480726 174.634643 65.123209a100.961453 100.961453 0 0 1 69.270205 104.596475 1377.366109 1377.366109 0 0 1-93.077039 419.256257c-72.188463 146.32243-249.741363 256.038654-315.376546 297.047844-15.51284 10.034708-33.585554 15.359247-51.965454 15.359248zM512.013262 72.838671a45.053792 45.053792 0 0 0-26.008326 7.321241l-12.287398 9.522734a810.661078 810.661078 0 0 1-149.343082 92.155484c-46.9481 22.731686-135.673352 52.733416-183.287019 68.809428a30.718495 30.718495 0 0 0-22.424501 32.203222 1343.47337 1343.47337 0 0 0 85.909391 397.9581c64.918419 128.812888 234.535708 234.126128 288.651456 269.298805a42.03314 42.03314 0 0 0 33.227171 0c55.549278-34.404714 225.166567-139.769151 288.651457-269.298805a1311.577333 1311.577333 0 0 0 85.90939-393.606313 32.25442 32.25442 0 0 0-20.990971-32.919987c-47.613667-16.076012-136.338919-46.077742-183.287019-68.758231A815.064062 815.064062 0 0 1 550.257788 89.631448l-13.720928-10.239498a33.585554 33.585554 0 0 0-24.574796-6.604477z m-48.381629 644.576416l-176.784938-179.959182a37.066984 37.066984 0 0 1 0-51.965454 35.838244 35.838244 0 0 1 51.197491 0l125.587447 128.761691 255.475481-259.008109a35.838244 35.838244 0 0 1 51.248689 0 37.066984 37.066984 0 0 1 0 51.965454l-306.672973 310.2056z" fill="#727CAD" p-id="1768"></path></svg>