<?xml version="1.0" standalone="no"?><!DOCTYPE svg PUBLIC "-//W3C//DTD SVG 1.1//EN" "http://www.w3.org/Graphics/SVG/1.1/DTD/svg11.dtd"><svg t="1610939128820" class="icon" viewBox="0 0 1024 1024" version="1.1" xmlns="http://www.w3.org/2000/svg" p-id="1939" xmlns:xlink="http://www.w3.org/1999/xlink" width="200" height="200"><defs><style type="text/css"></style></defs><path d="M512 950.857143A438.857143 438.857143 0 0 0 512 73.142857a438.857143 438.857143 0 1 0 0 877.714286z m0 73.142857A512 512 0 1 1 512 0a512 512 0 1 1 0 1024z m-36.571429-548.571429v-146.285714a36.571429 36.571429 0 0 1 73.142858 0v146.285714h146.285714a36.571429 36.571429 0 1 1 0 73.142858h-146.285714v146.285714a36.571429 36.571429 0 1 1-73.142858 0v-146.285714h-146.285714a36.571429 36.571429 0 1 1 0-73.142858h146.285714z" fill="#FFFFFF" p-id="1940"></path></svg>