<?xml version="1.0" standalone="no"?><!DOCTYPE svg PUBLIC "-//W3C//DTD SVG 1.1//EN" "http://www.w3.org/Graphics/SVG/1.1/DTD/svg11.dtd"><svg t="1612345731813" class="icon" viewBox="0 0 1024 1024" version="1.1" xmlns="http://www.w3.org/2000/svg" p-id="1769" xmlns:xlink="http://www.w3.org/1999/xlink" width="200" height="200"><defs><style type="text/css"></style></defs><path d="M773.970286 1024h-604.891429C116.123429 1024 73.115429 977.188571 73.115429 919.771429V190.098286c0-57.490286 43.008-104.228571 95.963428-104.228572h514.56c17.115429 0 30.939429 15.067429 30.939429 33.645715s-13.824 33.645714-30.939429 33.645714H169.078857c-18.797714 0-34.084571 16.530286-34.084571 36.937143v729.673143c0 20.406857 15.286857 37.010286 34.084571 37.010285h604.891429c18.797714 0 34.084571-16.603429 34.084571-37.010285V265.654857c0-18.578286 13.897143-33.645714 30.939429-33.645714 17.115429 0 30.939429 15.067429 30.939428 33.645714v654.116572c0 57.490286-43.008 104.228571-95.963428 104.228571zM652.260571 660.992H225.252571c-17.115429 0-30.939429-15.067429-30.939428-33.645714s13.897143-33.645714 30.939428-33.645715h427.008c17.115429 0 30.939429 15.067429 30.939429 33.645715s-13.824 33.645714-30.939429 33.645714z m-80.237714-215.771429a29.622857 29.622857 0 0 1-21.942857-9.801142 35.693714 35.693714 0 0 1 0-47.542858L898.093714 9.874286a29.257143 29.257143 0 0 1 43.739429 0c12.068571 13.165714 12.068571 34.377143 0 47.542857L593.892571 435.419429a29.622857 29.622857 0 0 1-21.942857 9.874285z m-124.342857-5.12h-222.354286c-17.188571 0-31.012571-15.067429-31.012571-33.645714s13.897143-33.645714 30.939428-33.645714h222.427429c17.115429 0 30.939429 15.067429 30.939429 33.645714s-13.824 33.645714-30.939429 33.645714z" p-id="1770"></path></svg>