<?xml version="1.0" standalone="no"?><!DOCTYPE svg PUBLIC "-//W3C//DTD SVG 1.1//EN" "http://www.w3.org/Graphics/SVG/1.1/DTD/svg11.dtd"><svg t="1608191326854" class="icon" viewBox="0 0 1024 1024" version="1.1" xmlns="http://www.w3.org/2000/svg" p-id="1674" xmlns:xlink="http://www.w3.org/1999/xlink" width="200" height="200"><defs><style type="text/css"></style></defs><path d="M597.942489 1023.995611a36.132417 36.132417 0 0 1-36.717557-36.790699v-316.707214H448.000274v316.707214a36.132417 36.132417 0 0 1-36.571272 36.790699h-194.559166A110.445241 110.445241 0 0 1 106.790308 913.55037V590.62604h-20.772482A85.869346 85.869346 0 0 1 0.002194 504.976122v-0.731426c0-22.381618 8.04568-43.154101 23.917612-59.24546l371.490979-394.969736A160.401598 160.401598 0 0 1 621.713816 43.666099a12.434232 12.434232 0 0 0 6.363401 6.363401l371.564122 394.969736c33.426142 33.64557 31.817006 87.99048-1.609136 121.63605a85.576776 85.576776 0 0 1-60.635169 23.990754h-31.890149v322.997473A110.445241 110.445241 0 0 1 795.573642 1023.995611H597.942489z m207.797966-64.219153c20.772482 0 38.25355-17.55421 38.253551-38.399835V553.762198c0-20.69934 16.018217-36.717557 36.717557-36.717557h68.607706c4.973693-0.073143 9.435388-3.291414 11.117666-8.04568 1.609136-4.754265 1.609136-9.508531-3.218272-14.409081L573.951734 89.965329a86.015631 86.015631 0 0 0-122.733188-3.218272c-1.609136 0-3.218272 1.609136-3.218272 3.218272L67.512762 494.58988a12.580518 12.580518 0 0 0 0 17.627353c3.218272 3.218272 6.363401 3.218272 9.581673 3.218272h59.026033c20.69934 0 36.644414 16.018217 36.644414 36.7907v369.150418c0 20.772482 17.55421 38.399835 38.253551 38.399835h171.153552v-283.061644a73.288829 73.288829 0 0 1 73.361971-73.581399h100.64414A73.288829 73.288829 0 0 1 629.540068 676.568529l-1.609136 283.134787h177.882666z" fill="#000000" p-id="1675"></path></svg>