<?xml version="1.0" standalone="no"?><!DOCTYPE svg PUBLIC "-//W3C//DTD SVG 1.1//EN" "http://www.w3.org/Graphics/SVG/1.1/DTD/svg11.dtd"><svg t="1611546390851" class="icon" viewBox="0 0 1024 1024" version="1.1" xmlns="http://www.w3.org/2000/svg" p-id="1719" xmlns:xlink="http://www.w3.org/1999/xlink" width="200" height="200"><defs><style type="text/css"></style></defs><path d="M512 947.2c-240.64 0-435.2-194.56-435.2-435.2S271.36 76.8 512 76.8s435.2 194.56 435.2 435.2-194.56 435.2-435.2 435.2M512 0C230.4 0 0 230.4 0 512s230.4 512 512 512 512-230.4 512-512-230.4-512-512-512m256 435.2c-43.52 0-76.8 33.28-76.8 76.8 0 43.52 33.28 76.8 76.8 76.8 43.52 0 76.8-33.28 76.8-76.8 0-43.52-33.28-76.8-76.8-76.8m-512 0c-43.52 0-76.8 33.28-76.8 76.8 0 43.52 33.28 76.8 76.8 76.8 43.52 0 76.8-33.28 76.8-76.8 0-43.52-33.28-76.8-76.8-76.8m256 0c-43.52 0-76.8 33.28-76.8 76.8 0 43.52 33.28 76.8 76.8 76.8 43.52 0 76.8-33.28 76.8-76.8 0-43.52-33.28-76.8-76.8-76.8" fill="#5F84FF" p-id="1720"></path></svg>