<?xml version="1.0" standalone="no"?><!DOCTYPE svg PUBLIC "-//W3C//DTD SVG 1.1//EN" "http://www.w3.org/Graphics/SVG/1.1/DTD/svg11.dtd"><svg t="1608191545447" class="icon" viewBox="0 0 1024 1024" version="1.1" xmlns="http://www.w3.org/2000/svg" p-id="2049" xmlns:xlink="http://www.w3.org/1999/xlink" width="200" height="200"><defs><style type="text/css"></style></defs><path d="M488.11072 854.016l25.28 19.52 25.28-19.52c14.976-11.136 336.384-268.864 336.384-515.456C875.05472 151.872 712.94272 0 513.45472 0 313.90272 0 151.66272 151.872 151.66272 338.56c0 245.184 322.944 504.32 336.32 515.456z m25.28-780.16c156.288 0 282.816 118.4 284.288 264.704 0 176.96-209.92 376.192-284.288 440.256-72.896-65.472-284.224-263.296-284.224-440.32 0-146.24 128-264.64 284.224-264.64z m187.52 260.48c-2.944-97.472-89.28-174.08-192-171.328-104.128 2.752-186.048 83.584-183.04 179.712 3.008 97.536 89.28 172.8 192 171.392 104.192-2.816 186.048-83.584 183.04-179.712z m-297.6 7.04c-1.856-56.832 45.888-104.256 106.56-105.92h0.64c60.672-1.664 111.296 43.008 113.024 99.84v0.448c1.792 56.832-46.016 104.192-106.688 105.856H516.46272c-60.736 1.6-111.36-43.136-113.088-99.968v-0.384 0.128z m376.512 394.24a10.048 10.048 0 0 0-8.896 0 11.264 11.264 0 0 0-5.952 5.568 85.76 85.76 0 0 1-11.904 26.496c-1.536 2.752 0 6.976 4.48 8.32 44.608 20.928 68.48 45.952 68.48 72.512 0 64-141.44 116.928-314.048 116.928-172.736 0-314.048-52.928-314.048-116.928 0-26.56 23.808-51.584 68.48-72.512 4.416-1.408 5.888-5.568 4.416-8.32-4.48-8.32-7.424-18.112-10.432-26.496a11.328 11.328 0 0 0-5.952-5.568 10.048 10.048 0 0 0-8.896 0C169.64672 764.864 127.98272 805.312 127.98272 848.448 127.98272 934.848 278.25472 1024 511.98272 1024c258.944 0 384-89.152 384-175.488 1.408-43.2-40.256-83.648-116.16-112.896z" fill="#000000" p-id="2050"></path></svg>