<?xml version="1.0" standalone="no"?><!DOCTYPE svg PUBLIC "-//W3C//DTD SVG 1.1//EN" "http://www.w3.org/Graphics/SVG/1.1/DTD/svg11.dtd"><svg t="1608191693157" class="icon" viewBox="0 0 1024 1024" version="1.1" xmlns="http://www.w3.org/2000/svg" p-id="2674" xmlns:xlink="http://www.w3.org/1999/xlink" width="200" height="200"><defs><style type="text/css"></style></defs><path d="M950.563213 501.175604h-110.226128V72.924787A73.142753 73.142753 0 0 0 766.828619 0.001463h-693.393295A73.142753 73.142753 0 0 0 0 72.924787v878.151889c0 40.228514 32.914239 72.923324 73.435324 72.923324h877.127889c40.521085 0 73.435324-32.69481 73.435324-72.923324V574.172071a73.142753 73.142753 0 0 0-73.435324-72.923324zM73.435324 951.076676V72.924787h693.393295v878.151889h-693.393295z m877.127889 0h-110.226128V574.172071h110.226128v376.977747zM204.360851 304.71417h202.020283a36.717662 36.717662 0 0 0 36.790804-36.42509 36.717662 36.717662 0 0 0-36.717662-36.498234H204.360851a36.717662 36.717662 0 0 0-36.717662 36.498234c0 19.967971 16.457119 36.425091 36.717662 36.42509z m431.542241 170.861471h-431.542241c-20.260542 0.073143-36.571376 16.310834-36.717662 36.42509 0 20.041114 16.457119 36.425091 36.717662 36.425091h431.542241A36.717662 36.717662 0 0 0 672.767039 512.000731a36.717662 36.717662 0 0 0-36.717662-36.498233v0.073143z m0 243.711651h-431.542241a36.717662 36.717662 0 0 0-36.717662 36.425091c0 20.114257 16.457119 36.498234 36.717662 36.498234h431.542241a36.717662 36.717662 0 0 0 36.790804-36.498234 36.717662 36.717662 0 0 0-36.717662-36.425091z" fill="#000000" p-id="2675"></path></svg>