<?xml version="1.0" standalone="no"?><!DOCTYPE svg PUBLIC "-//W3C//DTD SVG 1.1//EN" "http://www.w3.org/Graphics/SVG/1.1/DTD/svg11.dtd"><svg t="1608521570538" class="icon" viewBox="0 0 1024 1024" version="1.1" xmlns="http://www.w3.org/2000/svg" p-id="1892" xmlns:xlink="http://www.w3.org/1999/xlink" width="200" height="200"><defs><style type="text/css"></style></defs><path d="M768 358.4h-60.2624V244.736c0-103.7312-87.7568-188.2112-195.7376-188.2112-108.032 0-195.7376 84.48-195.7376 188.2112V358.4H256V244.736C256 109.7728 370.8416 0 512 0s256 109.7728 256 244.736V358.4zM775.3216 1024H248.6784C167.936 1024 102.4 957.0816 102.4 874.8544V507.4432C102.4 425.3184 168.0384 358.4 248.6784 358.4h526.6432C855.9616 358.4 921.6 425.3184 921.6 507.392v367.4624C921.6 957.0816 855.9616 1024 775.3216 1024zM248.6784 418.048c-48.4352 0-87.7568 40.0384-87.7568 89.3952v367.4112c0 49.3056 39.3216 89.3952 87.7568 89.3952h526.6432c48.4352 0 87.7568-40.0896 87.7568-89.3952V507.4432c0-49.3568-39.3216-89.3952-87.7568-89.3952H248.6784z" fill="#727CAD" p-id="1893"></path><path d="M767.0784 819.2H564.1216C563.6608 819.2 563.2 818.7904 563.2 818.3808v-49.5616c0-0.4096 0.4608-0.8192 0.9216-0.8192h202.9568c0.4608 0 0.9216 0.4096 0.9216 0.8192v49.5616c0 0.512-0.4608 0.8192-0.9216 0.8192z" fill="#727CAD" p-id="1894"></path></svg>