<?xml version="1.0" standalone="no"?><!DOCTYPE svg PUBLIC "-//W3C//DTD SVG 1.1//EN" "http://www.w3.org/Graphics/SVG/1.1/DTD/svg11.dtd"><svg t="1608521561577" class="icon" viewBox="0 0 1024 1024" version="1.1" xmlns="http://www.w3.org/2000/svg" p-id="1641" xmlns:xlink="http://www.w3.org/1999/xlink" width="200" height="200"><defs><style type="text/css"></style></defs><path d="M757.76 1024H266.24C204.8 1024 153.6 964.4544 153.6 893.0304V130.9696C153.6 59.5456 204.8 0 266.24 0h491.52C819.2 0 870.4 59.5456 870.4 130.9696v762.0608C870.4 964.4544 819.2 1024 757.76 1024zM266.24 71.424c-28.672 0-51.2 26.2144-51.2 59.5456v762.0608c0 33.3312 22.528 59.5456 51.2 59.5456h491.52c28.672 0 51.2-26.2144 51.2-59.5456V130.9696c0-33.3312-22.528-59.5456-51.2-59.5456H266.24z" fill="#727CAD" p-id="1642"></path><path d="M686.9504 870.4H388.2496c-15.872 0-29.8496-11.9296-29.8496-25.6s13.9264-25.6 29.8496-25.6h298.7008c15.872 0 29.8496 11.9296 29.8496 25.6s-13.9264 25.6-29.8496 25.6z" fill="#727CAD" p-id="1643"></path></svg>