<?xml version="1.0" standalone="no"?><!DOCTYPE svg PUBLIC "-//W3C//DTD SVG 1.1//EN" "http://www.w3.org/Graphics/SVG/1.1/DTD/svg11.dtd"><svg t="1608191738663" class="icon" viewBox="0 0 1024 1024" version="1.1" xmlns="http://www.w3.org/2000/svg" p-id="2799" xmlns:xlink="http://www.w3.org/1999/xlink" width="200" height="200"><defs><style type="text/css"></style></defs><path d="M282.107567 128.023039v62.316112l-115.123897 1.901666C166.032838 703.496242 166.032838 959.197095 166.98367 959.270236h6.143842c68.606236 0.365705 683.648706 1.46282 683.648706 0V192.167676H741.871745V128.023039h114.904473c38.325872 0 57.488807 21.357165 57.488808 63.998355v767.980252c0 42.641189-19.162936 63.998354-57.488808 63.998354H167.203093C128.877222 1024 109.714286 1002.642835 109.714286 960.001646V192.313958c0-42.860612 19.162936-64.290918 57.488807-64.290919h114.904474zM655.638533 512.013165c15.871592 0 28.744404 14.335631 28.744404 32.035748 0 17.626975-12.872812 31.962607-28.744404 31.962607H540.734059v63.998354h114.904474c15.871592 0 28.744404 14.335631 28.744404 32.035748 0 17.626975-12.872812 31.962607-28.744404 31.962606H540.734059v96.034102c0 17.626975-12.872812 31.962607-28.744403 31.962607-15.871592 0-28.744404-14.335631-28.744404-31.962607V704.008228H368.340778c-15.871592 0-28.744404-14.335631-28.744404-31.962606 0-17.700116 12.872812-32.035748 28.744404-32.035748h114.904474v-63.998354H368.340778c-15.871592 0-28.744404-14.335631-28.744404-31.962607 0-17.700116 12.872812-32.035748 28.744404-32.035748h287.297755zM540.734059 0.026331c37.521321 0.73141 56.684257 22.088575 57.488808 63.998354h28.671263c34.010554 0 42.348625 54.270604 46.005674 73.287258l10.239736 51.418107a62.754958 62.754958 0 0 1-7.826084 46.078815 42.71433 42.71433 0 0 1-34.4494 21.137742h-37.155616a34897.754058 34897.754058 0 0 0-218.691519 0L383.992947 256.019748a43.518881 43.518881 0 0 1-35.25395-21.649729 62.16983 62.16983 0 0 1-7.679803-45.859392l10.239737-51.198684C355.467966 115.589073 374.265197 64.024685 397.158323 64.024685h28.671263c0.585128-43.518881 19.748064-64.876046 57.488807-63.998354h57.488807z m-28.890685 63.998354c-18.285244 0-34.083695 13.969926-38.325872 33.71799l-0.877692 4.095895-1.097114 5.485573c-3.949613 19.748064-17.480693 20.698896-34.522541 20.698896H425.683304c-19.016654 0.365705-28.524981 21.576588-28.671263 63.63265l229.808948 0.365705c0.511987-0.073141 0.292564-63.193804-28.671263-63.998355h-12.068261c-15.579028 0-29.256391-1.389679-33.279144-20.406332a415.440746 415.440746 0 0 0-2.267371-10.386019c-4.607882-19.601782-20.479473-33.279144-38.764717-33.279144v0.073141z" fill="#000000" p-id="2800"></path><path d="M337.914132 376.409795a26.842738 26.842738 0 0 1 42.129202 0l126.607031 148.841887a35.253951 35.253951 0 0 1 5.26615 8.26493 29.036968 29.036968 0 0 1 5.046727-8.26493l126.533889-148.841887a26.842738 26.842738 0 0 1 42.202344-0.804551 39.496127 39.496127 0 0 1 0 50.467274l-126.533889 148.768746a26.842738 26.842738 0 0 1-42.202344 0 35.327092 35.327092 0 0 1-5.26615-8.338071l-1.535961 3.437626-3.510766 4.973586a26.842738 26.842738 0 0 1-42.202344 0L337.914132 425.926236a39.496127 39.496127 0 0 1 0-49.589582v0.073141z" fill="#000000" p-id="2801"></path></svg>