<?xml version="1.0" standalone="no"?><!DOCTYPE svg PUBLIC "-//W3C//DTD SVG 1.1//EN" "http://www.w3.org/Graphics/SVG/1.1/DTD/svg11.dtd"><svg t="1610939122462" class="icon" viewBox="0 0 1024 1024" version="1.1" xmlns="http://www.w3.org/2000/svg" p-id="1814" xmlns:xlink="http://www.w3.org/1999/xlink" width="200" height="200"><defs><style type="text/css"></style></defs><path d="M995.84 937.216l-235.776-243.008A440.64 440.64 0 0 0 843.52 434.56c0-239.488-189.312-434.56-421.76-434.56C189.312 0 0 195.072 0 434.56c0 239.552 189.312 434.56 421.76 434.56a410.24 410.24 0 0 0 268.544-99.2l233.792 240.832 71.808-73.6zM421.76 782.72c-186.24 0-337.536-156.16-337.536-347.776S235.84 87.04 421.824 87.04c186.24 0 337.536 156.16 337.536 347.84a351.808 351.808 0 0 1-92.992 239.808C602.048 744.192 515.2 782.72 421.824 782.72z" fill="#FFFFFF" p-id="1815"></path></svg>