<?xml version="1.0" standalone="no"?><!DOCTYPE svg PUBLIC "-//W3C//DTD SVG 1.1//EN" "http://www.w3.org/Graphics/SVG/1.1/DTD/svg11.dtd"><svg t="1608191644544" class="icon" viewBox="0 0 1024 1024" version="1.1" xmlns="http://www.w3.org/2000/svg" p-id="2424" xmlns:xlink="http://www.w3.org/1999/xlink" width="200" height="200"><defs><style type="text/css"></style></defs><path d="M479.908544 337.700669c-3.070626-62.367834-45.581743-103.514228-115.319081-113.476705-65.438461-9.280115-63.050196-35.414558-26.612095-76.42448 15.830785-17.741397 31.66157-35.755739 49.061786-51.99594C519.553743-28.386235 499.492317-33.640418 627.230375 90.754069c28.727416 28.045055 46.400577 32.070987 75.400938-3.411807C773.460428 0.341181 892.464261-6.345961 965.818114 67.349073c74.855048 75.332701 72.466783 174.684524-17.195508 249.061919-50.76769 42.1017-33.77689 62.777251 2.183556 98.123573 96.008252 94.438821 96.690614 99.829476 3.684752 195.564784-124.189779 127.874531-252.06431 252.200782-377.687048 378.71059-43.466423 43.87584-84.885761 47.901772-129.785143 2.183557C307.202868 848.857611 166.841123 707.267616 26.547614 565.67762c-33.77689-34.118071-36.574572-67.2126-1.023542-102.695394 44.831146-44.626437 87.001082-92.118792 132.924005-135.448743 13.851937-13.101339 29.341541-37.120461 51.859468-28.522707 19.310828 7.369503 12.009561 32.412168 15.421369 50.017092 11.736616 60.388986 38.894601 111.156676 102.013032 127.806295 53.701844 14.193118 95.735308-8.051865 130.331032-52.473594 18.560231-23.814414 20.061426-47.7653 21.835566-86.6599z m62.777251 9.689532a200.614259 200.614259 0 0 1-131.695755 189.014114c-65.847877 24.155594-145.547692-6.482434-207.096692-84.135163-23.677941-29.819194-43.807603-60.116041-75.605646-13.510757-22.859108 33.640418-101.398908 50.358273-34.459252 115.660262 125.554502 122.552112 248.720739 247.697197 370.522253 374.002296 36.983989 38.280476 61.890181 34.459252 96.75885-2.320029 88.434041-93.347043 180.621069-183.07757 270.488069-275.128126 41.828755-42.852297 108.08605-83.452802 115.933206-132.582824 9.689532-61.20782-72.739728-93.347043-113.613177-139.474675-47.287647-53.360663-43.534659-74.718576 24.496775-86.86461 66.462003-11.873089 100.716546-52.951246 96.690613-114.295538-4.094169-61.821945-51.518287-105.083659-110.54255-105.42484-56.977179-0.341181-104.810715 33.77689-111.634329 101.194199-6.755378 66.734947-34.800433 64.005502-75.742118 23.88265-35.619266-35.005141-73.899742-67.417309-108.222522-103.514228-59.774861-62.777251-79.358634 7.369503-109.3143 33.43571-38.826365 33.640418-12.214269 47.628827 20.470843 67.622017 54.452442 33.43571 81.064537 87.546971 82.565732 152.439542z" fill="#000000" p-id="2425"></path></svg>