<?xml version="1.0" standalone="no"?><!DOCTYPE svg PUBLIC "-//W3C//DTD SVG 1.1//EN" "http://www.w3.org/Graphics/SVG/1.1/DTD/svg11.dtd"><svg t="1608191478032" class="icon" viewBox="0 0 1024 1024" version="1.1" xmlns="http://www.w3.org/2000/svg" p-id="1924" xmlns:xlink="http://www.w3.org/1999/xlink" width="200" height="200"><defs><style type="text/css"></style></defs><path d="M889.582933 75.9808H721.92v-12.288C721.92 28.4672 692.224 0 655.7696 0H368.2304c-36.4544 0-66.218667 28.535467-66.218667 63.624533v12.288H134.485333c-36.4544 0-66.1504 28.672-66.1504 63.6928v820.770134c0 35.089067 29.696 63.624533 66.1504 63.624533H889.514667c36.4544 0 66.1504-28.535467 66.1504-63.624533V139.4688c-0.136533-35.0208-29.696-63.488-66.1504-63.488zM368.2304 63.6928h287.402667v87.4496h-287.402667V63.624533z m521.352533 896.546133H134.485333V139.4688h167.662934v11.605333c0 35.0208 29.696 63.624533 66.1504 63.624534h287.402666c36.522667 0 66.218667-28.603733 66.218667-63.6928v-11.537067h167.7312v820.770133z m-594.397866-636.928a32.426667 32.426667 0 0 0-33.041067 31.744c0 17.6128 14.882133 31.812267 33.041067 31.812267h443.255466c18.295467 0 33.041067-14.336 33.041067-31.812267a32.426667 32.426667 0 0 0-33.041067-31.744H295.185067z m443.255466 160.085334H295.185067a32.426667 32.426667 0 0 0-33.041067 31.744c0 17.476267 14.882133 31.744 33.041067 31.744h443.255466c18.295467 0 33.041067-14.267733 33.041067-31.744a32.426667 32.426667 0 0 0-33.041067-31.744z m0 160.017066h-72.362666a32.426667 32.426667 0 0 0-32.9728 31.812267c0 17.476267 14.882133 31.744 33.041066 31.744h72.2944c18.295467 0 33.041067-14.336 33.041067-31.744a32.426667 32.426667 0 0 0-33.041067-31.812267z" fill="#000000" p-id="1925"></path></svg>