<?xml version="1.0" standalone="no"?><!DOCTYPE svg PUBLIC "-//W3C//DTD SVG 1.1//EN" "http://www.w3.org/Graphics/SVG/1.1/DTD/svg11.dtd"><svg t="1611545805890" class="icon" viewBox="0 0 1024 1024" version="1.1" xmlns="http://www.w3.org/2000/svg" p-id="1719" xmlns:xlink="http://www.w3.org/1999/xlink" width="200" height="200"><defs><style type="text/css"></style></defs><path d="M915.163429 448H704V512h211.163429c25.6 0 44.836571 19.236571 44.836571 44.763429v358.4c0 25.6-19.163429 44.836571-44.836571 44.836571H108.909714a43.739429 43.739429 0 0 1-44.836571-44.836571v-358.4c0-25.6 19.163429-44.763429 44.836571-44.763429h211.163429v-64H108.763429C51.2 448 0 499.2 0 556.763429v358.4C0 972.8 51.2 1024 108.836571 1024h806.326858C972.8 1024 1024 972.8 1024 915.163429v-358.4c0-57.563429-51.2-108.763429-108.836571-108.763429zM806.4 281.6L716.8 192 543.963429 19.236571c-25.6-25.6-44.763429-25.6-70.363429 0l-128 128c-38.4 44.763429-83.163429 89.526857-128 134.363429-12.8 6.363429-32.036571 31.963429-12.8 51.2 6.436571 6.436571 12.8 12.8 19.236571 12.8 12.726857 0 25.6-6.363429 31.963429-19.163429 70.436571-70.436571 140.8-134.436571 204.8-198.436571l12.8-12.8 6.436571-6.363429v723.163429h64V108.836571l6.363429 6.363429 19.163429 19.163429 192 192.073142c6.436571 6.363429 19.236571 19.163429 32.036571 19.163429 6.436571 0 12.8-6.363429 25.6-12.8 19.236571-19.236571 0-38.4-12.8-51.2z" fill="#BAC0CD" p-id="1720"></path></svg>