<?xml version="1.0" standalone="no"?><!DOCTYPE svg PUBLIC "-//W3C//DTD SVG 1.1//EN" "http://www.w3.org/Graphics/SVG/1.1/DTD/svg11.dtd"><svg t="1608191610921" class="icon" viewBox="0 0 1024 1024" version="1.1" xmlns="http://www.w3.org/2000/svg" p-id="2299" xmlns:xlink="http://www.w3.org/1999/xlink" width="200" height="200"><defs><style type="text/css"></style></defs><path d="M747.184174 668.801118a100.558006 100.558006 0 1 0 101.385383 100.558006c0-55.306904-44.805593-100.176141-100.112496-100.17614l-1.272887-0.381866z m0 148.92768a48.815184 48.815184 0 1 1 48.815185-48.75154v0.381866a49.260694 49.260694 0 0 1-48.815185 48.815184v-0.381866z m265.205831-101.003516a35.195302 35.195302 0 0 0-33.09504-32.64953 56.898011 56.898011 0 0 1-56.898011-56.898012c0.572799-7.446384 2.291195-14.765479 5.091545-21.639064a42.450753 42.450753 0 0 0-17.820407-48.369674l-66.19008-36.913699a42.387109 42.387109 0 0 0-16.54752-3.436792 42.387109 42.387109 0 0 0-31.822154 13.174371c-12.092418 12.983439-28.003495 22.020931-45.378391 25.839589a88.656521 88.656521 0 0 1-45.823902-26.285099 42.450753 42.450753 0 0 0-31.822154-13.619882 42.387109 42.387109 0 0 0-16.54752 3.436793l-68.735852 37.741074a42.450753 42.450753 0 0 0-14.001748 49.642561c2.863994 7.000874 4.58239 14.256325 5.091544 21.702709a56.898011 56.898011 0 0 1-58.552763 56.00699h-2.545772a35.195302 35.195302 0 0 0-32.64953 32.713175 359.717628 359.717628 0 0 0-5.537055 52.188332c0.572799 17.693118 2.418484 35.258947 5.537055 52.697487 1.272886 17.629473 15.401923 31.631221 33.09504 32.64953h2.100262a55.179615 55.179615 0 0 1 51.742823 78.537076 42.450753 42.450753 0 0 0 15.720144 50.915446l64.917194 36.086323a42.387109 42.387109 0 0 0 48.815184-10.183089c11.96513-14.129036 28.194428-24.121193 46.205767-28.449006 18.138628 4.13688 34.495215 14.001748 46.714922 28.003495a44.551016 44.551016 0 0 0 32.64953 14.001748 42.387109 42.387109 0 0 0 17.820406-4.200524l65.74457-36.086323c15.338278-11.455975 21.12991-31.822154 14.001748-49.64256a68.353987 68.353987 0 0 1-5.091544-21.639065 56.898011 56.898011 0 0 1 57.279877-57.789031h2.545772a35.195302 35.195302 0 0 0 32.713174-32.20402c3.69137-17.374896 6.109854-35.004369 7.191807-52.697487a359.717628 359.717628 0 0 0-5.537055-52.633842h-0.381866z m-49.260694 87.447279a108.195323 108.195323 0 0 0-94.575441 107.431591c0.318222 11.265042 2.354839 22.402796 5.91892 33.09504l-47.542298 26.348744a185.459513 185.459513 0 0 0-19.475158-16.99303 103.103779 103.103779 0 0 0-60.71667-23.357461 103.103779 103.103779 0 0 0-59.825649 22.91195 236.756825 236.756825 0 0 0-19.475158 16.547521l-45.442036-25.457724c3.627726-10.692244 5.664343-21.829998 5.982565-33.09504a108.195323 108.195323 0 0 0-94.193576-107.431591 180.113391 180.113391 0 0 1 0-69.626873 108.195323 108.195323 0 0 0 94.193576-107.367948 97.694013 97.694013 0 0 0-5.982565-32.713174l49.260694-27.176119c5.982565 5.918921 12.537929 11.328687 19.475158 16.165654 16.802097 13.428949 37.486497 21.193555 58.998274 22.084575a104.376665 104.376665 0 0 0 58.552763-21.639065c8.082827-5.982565 14.829124-11.901486 19.093292-15.720144l47.096788 26.285099a109.977364 109.977364 0 0 0-5.91892 32.713174 108.195323 108.195323 0 0 0 94.193575 107.367948c2.036618 11.51962 3.182215 23.166528 3.373149 34.813436-0.254577 11.710553-1.272886 23.293817-2.991283 34.813437z m-896.111855 146.891062v-56.898011a373.082933 373.082933 0 0 1 339.478738-370.155295c11.710553-0.636443 23.48475-0.636443 35.195303 0h5.537054a259.605132 259.605132 0 0 0 138.744592-42.450753l16.102009-12.728862c63.007865-48.369674 99.921563-123.469957 99.730631-202.898053a260.177931 260.177931 0 1 0-520.228573 0A254.768164 254.768164 0 0 0 281.307841 468.830702l16.54752 12.728862-19.093293 7.637317A436.409019 436.409019 0 0 0 0 894.165612v89.993051c0 18.520494 15.020057 33.54055 33.54055 33.540551H523.156211a366.845791 366.845791 0 0 1-40.286847-66.635591H67.017456zM248.212801 263.768742A193.09683 193.09683 0 1 1 442.518873 455.656331h-1.272887A192.20581 192.20581 0 0 1 248.212801 264.214253v-0.445511z" fill="#000000" p-id="2300"></path></svg>