<?xml version="1.0" standalone="no"?><!DOCTYPE svg PUBLIC "-//W3C//DTD SVG 1.1//EN" "http://www.w3.org/Graphics/SVG/1.1/DTD/svg11.dtd"><svg t="1608191578461" class="icon" viewBox="0 0 1024 1024" version="1.1" xmlns="http://www.w3.org/2000/svg" p-id="2174" xmlns:xlink="http://www.w3.org/1999/xlink" width="200" height="200"><defs><style type="text/css"></style></defs><path d="M809.050869 68.663417c12.350456 0 22.845144 13.502312 22.845144 29.436321v857.364829H191.976003V98.16373c0-15.998 10.494688-29.372328 22.845144-29.372329h594.229722m0-68.663417H214.821147C164.267467 0.127984 123.504562 44.026497 123.504562 98.035746V955.528559H0V1024h1023.872016v-68.535433h-123.44057V98.16373C900.431446 44.026497 859.540557 0.127984 809.050869 0.127984z m-102.835146 205.670291v91.44457H317.656293V205.798275h388.55943m68.535433-68.535433H249.12086v228.515436h525.630296V137.262842z m-399.950006 570.168729H511.936008V433.289839l-137.134858 274.269716zM511.936008 627.505562v274.269716l137.134858-274.205724H511.936008z" fill="#000000" p-id="2175"></path></svg>